<mxfile host="app.diagrams.net" modified="2024-04-02T10:17:38.271Z" agent="Mozilla/5.0 (Windows NT 10.0; Win64; x64) AppleWebKit/537.36 (KHTML, like Gecko) Chrome/122.0.0.0 Safari/537.36" etag="w-SnDKVHDgmNpenn_dbt" version="24.2.1" type="device">
  <diagram name="페이지-1" id="UwtReMGdmsthdQSSthFX">
    <mxGraphModel dx="2570" dy="984" grid="1" gridSize="10" guides="1" tooltips="1" connect="1" arrows="1" fold="1" page="1" pageScale="1" pageWidth="827" pageHeight="1169" math="0" shadow="0">
      <root>
        <mxCell id="0" />
        <mxCell id="1" parent="0" />
        <mxCell id="zDzXycww6mSuyla_Eq_U-1" value="&lt;font color=&quot;#ff0000&quot; style=&quot;font-size: 16px;&quot;&gt;&lt;b&gt;우리읍 소개&lt;/b&gt;&lt;/font&gt;" style="ellipse;whiteSpace=wrap;html=1;strokeWidth=3;" parent="1" vertex="1">
          <mxGeometry x="350" y="140" width="160" height="70" as="geometry" />
        </mxCell>
        <mxCell id="zDzXycww6mSuyla_Eq_U-2" value="&lt;font style=&quot;font-size: 14px;&quot;&gt;&lt;b&gt;마을 소개&lt;/b&gt;&lt;/font&gt;" style="ellipse;whiteSpace=wrap;html=1;strokeWidth=2;" parent="1" vertex="1">
          <mxGeometry x="160" y="40" width="120" height="60" as="geometry" />
        </mxCell>
        <mxCell id="zDzXycww6mSuyla_Eq_U-4" value="&lt;font style=&quot;font-size: 14px;&quot;&gt;&lt;b&gt;읍 사무소&lt;/b&gt;&lt;/font&gt;" style="ellipse;whiteSpace=wrap;html=1;strokeWidth=2;" parent="1" vertex="1">
          <mxGeometry x="300" y="40" width="120" height="60" as="geometry" />
        </mxCell>
        <mxCell id="zDzXycww6mSuyla_Eq_U-5" value="&lt;font style=&quot;font-size: 14px;&quot;&gt;&lt;b&gt;리 사무소&lt;/b&gt;&lt;/font&gt;" style="ellipse;whiteSpace=wrap;html=1;strokeWidth=2;" parent="1" vertex="1">
          <mxGeometry x="440" y="40" width="120" height="60" as="geometry" />
        </mxCell>
        <mxCell id="zDzXycww6mSuyla_Eq_U-6" value="&lt;font style=&quot;font-size: 14px;&quot;&gt;&lt;b&gt;오시는 길&lt;/b&gt;&lt;/font&gt;" style="ellipse;whiteSpace=wrap;html=1;strokeWidth=2;" parent="1" vertex="1">
          <mxGeometry x="580" y="40" width="120" height="60" as="geometry" />
        </mxCell>
        <mxCell id="zDzXycww6mSuyla_Eq_U-7" value="" style="endArrow=classic;html=1;rounded=0;entryX=0.5;entryY=0;entryDx=0;entryDy=0;" parent="1" target="zDzXycww6mSuyla_Eq_U-1" edge="1">
          <mxGeometry width="50" height="50" relative="1" as="geometry">
            <mxPoint x="260" y="90" as="sourcePoint" />
            <mxPoint x="413.72" y="177.66" as="targetPoint" />
          </mxGeometry>
        </mxCell>
        <mxCell id="zDzXycww6mSuyla_Eq_U-8" value="" style="endArrow=classic;html=1;rounded=0;entryX=0.5;entryY=0;entryDx=0;entryDy=0;" parent="1" target="zDzXycww6mSuyla_Eq_U-1" edge="1">
          <mxGeometry width="50" height="50" relative="1" as="geometry">
            <mxPoint x="600" y="90" as="sourcePoint" />
            <mxPoint x="510" y="170" as="targetPoint" />
          </mxGeometry>
        </mxCell>
        <mxCell id="zDzXycww6mSuyla_Eq_U-11" value="" style="endArrow=classic;html=1;rounded=0;" parent="1" source="zDzXycww6mSuyla_Eq_U-4" edge="1">
          <mxGeometry width="50" height="50" relative="1" as="geometry">
            <mxPoint x="380" y="100" as="sourcePoint" />
            <mxPoint x="430" y="140" as="targetPoint" />
          </mxGeometry>
        </mxCell>
        <mxCell id="zDzXycww6mSuyla_Eq_U-13" value="" style="endArrow=classic;html=1;rounded=0;" parent="1" source="zDzXycww6mSuyla_Eq_U-5" edge="1">
          <mxGeometry width="50" height="50" relative="1" as="geometry">
            <mxPoint x="480" y="95" as="sourcePoint" />
            <mxPoint x="430" y="140" as="targetPoint" />
          </mxGeometry>
        </mxCell>
        <mxCell id="zDzXycww6mSuyla_Eq_U-14" value="&lt;span style=&quot;font-size: 16px;&quot;&gt;&lt;b&gt;&lt;font color=&quot;#ff0000&quot;&gt;여행 가이드&lt;/font&gt;&lt;/b&gt;&lt;/span&gt;" style="ellipse;whiteSpace=wrap;html=1;strokeWidth=3;" parent="1" vertex="1">
          <mxGeometry x="-50" y="240" width="180" height="70" as="geometry" />
        </mxCell>
        <mxCell id="zDzXycww6mSuyla_Eq_U-15" value="&lt;font style=&quot;font-size: 14px;&quot;&gt;&lt;b&gt;문화재&lt;/b&gt;&lt;/font&gt;" style="ellipse;whiteSpace=wrap;html=1;strokeWidth=2;" parent="1" vertex="1">
          <mxGeometry x="-230" y="140" width="120" height="60" as="geometry" />
        </mxCell>
        <mxCell id="zDzXycww6mSuyla_Eq_U-16" value="&lt;font style=&quot;font-size: 14px;&quot;&gt;&lt;b&gt;특산물&lt;/b&gt;&lt;/font&gt;" style="ellipse;whiteSpace=wrap;html=1;strokeWidth=2;" parent="1" vertex="1">
          <mxGeometry x="-90" y="140" width="120" height="60" as="geometry" />
        </mxCell>
        <mxCell id="zDzXycww6mSuyla_Eq_U-17" value="&lt;font style=&quot;font-size: 14px;&quot;&gt;&lt;b&gt;체험 안내&lt;/b&gt;&lt;/font&gt;" style="ellipse;whiteSpace=wrap;html=1;strokeWidth=2;" parent="1" vertex="1">
          <mxGeometry x="190" y="140" width="120" height="60" as="geometry" />
        </mxCell>
        <mxCell id="zDzXycww6mSuyla_Eq_U-18" value="&lt;font style=&quot;font-size: 14px;&quot;&gt;&lt;b&gt;관광지&lt;/b&gt;&lt;/font&gt;" style="ellipse;whiteSpace=wrap;html=1;strokeWidth=2;" parent="1" vertex="1">
          <mxGeometry x="50" y="140" width="120" height="60" as="geometry" />
        </mxCell>
        <mxCell id="zDzXycww6mSuyla_Eq_U-19" value="" style="endArrow=classic;html=1;rounded=0;entryX=0.5;entryY=0;entryDx=0;entryDy=0;" parent="1" edge="1">
          <mxGeometry width="50" height="50" relative="1" as="geometry">
            <mxPoint x="-130" y="190" as="sourcePoint" />
            <mxPoint x="40" y="240" as="targetPoint" />
          </mxGeometry>
        </mxCell>
        <mxCell id="zDzXycww6mSuyla_Eq_U-20" value="" style="endArrow=classic;html=1;rounded=0;" parent="1" edge="1">
          <mxGeometry width="50" height="50" relative="1" as="geometry">
            <mxPoint x="-3" y="197" as="sourcePoint" />
            <mxPoint x="40" y="240" as="targetPoint" />
          </mxGeometry>
        </mxCell>
        <mxCell id="zDzXycww6mSuyla_Eq_U-21" value="" style="endArrow=classic;html=1;rounded=0;" parent="1" edge="1">
          <mxGeometry width="50" height="50" relative="1" as="geometry">
            <mxPoint x="83" y="197" as="sourcePoint" />
            <mxPoint x="40" y="240" as="targetPoint" />
          </mxGeometry>
        </mxCell>
        <mxCell id="zDzXycww6mSuyla_Eq_U-22" value="" style="endArrow=classic;html=1;rounded=0;entryX=0.5;entryY=0;entryDx=0;entryDy=0;" parent="1" edge="1">
          <mxGeometry width="50" height="50" relative="1" as="geometry">
            <mxPoint x="210" y="190" as="sourcePoint" />
            <mxPoint x="40" y="240" as="targetPoint" />
          </mxGeometry>
        </mxCell>
        <mxCell id="uQ56GGnQa8LPVssa8NeZ-4" value="&lt;font style=&quot;font-size: 18px;&quot;&gt;&lt;b&gt;관리자&lt;/b&gt;&lt;/font&gt;" style="shape=umlActor;verticalLabelPosition=bottom;verticalAlign=top;html=1;outlineConnect=0;strokeWidth=2;" vertex="1" parent="1">
          <mxGeometry x="590" y="240" width="70" height="90" as="geometry" />
        </mxCell>
        <mxCell id="uQ56GGnQa8LPVssa8NeZ-5" style="edgeStyle=orthogonalEdgeStyle;rounded=0;orthogonalLoop=1;jettySize=auto;html=1;exitX=0.5;exitY=1;exitDx=0;exitDy=0;" edge="1" parent="1" source="zDzXycww6mSuyla_Eq_U-14" target="zDzXycww6mSuyla_Eq_U-14">
          <mxGeometry relative="1" as="geometry" />
        </mxCell>
        <mxCell id="uQ56GGnQa8LPVssa8NeZ-8" value="&lt;font style=&quot;font-size: 14px;&quot;&gt;&lt;b&gt;버스 이용안대&lt;/b&gt;&lt;/font&gt;" style="ellipse;whiteSpace=wrap;html=1;strokeWidth=2;" vertex="1" parent="1">
          <mxGeometry x="-290" y="330" width="120" height="60" as="geometry" />
        </mxCell>
        <mxCell id="uQ56GGnQa8LPVssa8NeZ-9" value="&lt;font style=&quot;font-size: 14px;&quot;&gt;&lt;b&gt;날씨 안내&lt;/b&gt;&lt;/font&gt;" style="ellipse;whiteSpace=wrap;html=1;strokeWidth=2;" vertex="1" parent="1">
          <mxGeometry x="-150" y="330" width="120" height="60" as="geometry" />
        </mxCell>
        <mxCell id="uQ56GGnQa8LPVssa8NeZ-10" value="" style="endArrow=classic;html=1;rounded=0;entryX=0.5;entryY=0;entryDx=0;entryDy=0;" edge="1" parent="1">
          <mxGeometry width="50" height="50" relative="1" as="geometry">
            <mxPoint x="-190" y="380" as="sourcePoint" />
            <mxPoint x="-20" y="430" as="targetPoint" />
          </mxGeometry>
        </mxCell>
        <mxCell id="uQ56GGnQa8LPVssa8NeZ-11" value="" style="endArrow=classic;html=1;rounded=0;" edge="1" parent="1">
          <mxGeometry width="50" height="50" relative="1" as="geometry">
            <mxPoint x="-63" y="387" as="sourcePoint" />
            <mxPoint x="-20" y="430" as="targetPoint" />
          </mxGeometry>
        </mxCell>
        <mxCell id="uQ56GGnQa8LPVssa8NeZ-16" value="&lt;span style=&quot;font-size: 16px;&quot;&gt;&lt;b&gt;&lt;font color=&quot;#ff0000&quot;&gt;교통,날씨&lt;/font&gt;&lt;/b&gt;&lt;/span&gt;" style="ellipse;whiteSpace=wrap;html=1;strokeWidth=3;" vertex="1" parent="1">
          <mxGeometry x="-110" y="430" width="180" height="70" as="geometry" />
        </mxCell>
        <mxCell id="uQ56GGnQa8LPVssa8NeZ-28" value="&lt;font style=&quot;font-size: 14px;&quot;&gt;&lt;b&gt;제주시 보건소&lt;/b&gt;&lt;/font&gt;" style="ellipse;whiteSpace=wrap;html=1;strokeWidth=2;" vertex="1" parent="1">
          <mxGeometry x="174" y="610" width="120" height="60" as="geometry" />
        </mxCell>
        <mxCell id="uQ56GGnQa8LPVssa8NeZ-29" value="&lt;font style=&quot;font-size: 14px;&quot;&gt;&lt;b&gt;애월읍 병원&lt;/b&gt;&lt;/font&gt;" style="ellipse;whiteSpace=wrap;html=1;strokeWidth=2;" vertex="1" parent="1">
          <mxGeometry x="315" y="610" width="120" height="60" as="geometry" />
        </mxCell>
        <mxCell id="uQ56GGnQa8LPVssa8NeZ-33" value="&lt;font style=&quot;font-size: 14px;&quot;&gt;&lt;b&gt;심야 약국 검색&lt;/b&gt;&lt;/font&gt;" style="ellipse;whiteSpace=wrap;html=1;strokeWidth=2;" vertex="1" parent="1">
          <mxGeometry x="460" y="610" width="120" height="60" as="geometry" />
        </mxCell>
        <mxCell id="uQ56GGnQa8LPVssa8NeZ-34" value="&lt;span style=&quot;font-size: 16px;&quot;&gt;&lt;b&gt;&lt;font color=&quot;#ff0000&quot;&gt;주민자치센터&lt;/font&gt;&lt;/b&gt;&lt;/span&gt;" style="ellipse;whiteSpace=wrap;html=1;strokeWidth=3;" vertex="1" parent="1">
          <mxGeometry x="25" y="530" width="180" height="70" as="geometry" />
        </mxCell>
        <mxCell id="uQ56GGnQa8LPVssa8NeZ-35" value="&lt;span style=&quot;font-size: 16px;&quot;&gt;&lt;b&gt;&lt;font color=&quot;#ff0000&quot;&gt;공지사항&lt;/font&gt;&lt;/b&gt;&lt;/span&gt;" style="ellipse;whiteSpace=wrap;html=1;strokeWidth=3;" vertex="1" parent="1">
          <mxGeometry x="620" y="593.5" width="180" height="70" as="geometry" />
        </mxCell>
        <mxCell id="uQ56GGnQa8LPVssa8NeZ-37" value="&lt;font style=&quot;font-size: 14px;&quot;&gt;&lt;b&gt;자유게시판&lt;/b&gt;&lt;/font&gt;" style="ellipse;whiteSpace=wrap;html=1;strokeWidth=2;" vertex="1" parent="1">
          <mxGeometry x="950" y="520" width="120" height="60" as="geometry" />
        </mxCell>
        <mxCell id="uQ56GGnQa8LPVssa8NeZ-351" value="&lt;font color=&quot;#0000ff&quot; style=&quot;font-size: 18px;&quot;&gt;&lt;b&gt;내용 수정&lt;/b&gt;&lt;/font&gt;" style="ellipse;whiteSpace=wrap;html=1;" vertex="1" parent="1">
          <mxGeometry x="380" y="280" width="120" height="50" as="geometry" />
        </mxCell>
        <mxCell id="uQ56GGnQa8LPVssa8NeZ-357" value="" style="endArrow=classic;html=1;rounded=0;entryX=0;entryY=0.5;entryDx=0;entryDy=0;exitX=0.5;exitY=1;exitDx=0;exitDy=0;" edge="1" parent="1" source="zDzXycww6mSuyla_Eq_U-1" target="uQ56GGnQa8LPVssa8NeZ-351">
          <mxGeometry width="50" height="50" relative="1" as="geometry">
            <mxPoint x="520" y="190" as="sourcePoint" />
            <mxPoint x="570" y="140" as="targetPoint" />
          </mxGeometry>
        </mxCell>
        <mxCell id="uQ56GGnQa8LPVssa8NeZ-358" value="" style="endArrow=classic;html=1;rounded=0;entryX=0;entryY=0.5;entryDx=0;entryDy=0;exitX=1;exitY=0.5;exitDx=0;exitDy=0;" edge="1" parent="1" source="zDzXycww6mSuyla_Eq_U-14" target="uQ56GGnQa8LPVssa8NeZ-351">
          <mxGeometry width="50" height="50" relative="1" as="geometry">
            <mxPoint x="129" y="290" as="sourcePoint" />
            <mxPoint x="210" y="255" as="targetPoint" />
          </mxGeometry>
        </mxCell>
        <mxCell id="uQ56GGnQa8LPVssa8NeZ-359" value="" style="endArrow=classic;html=1;rounded=0;exitX=1;exitY=0.5;exitDx=0;exitDy=0;" edge="1" parent="1" source="uQ56GGnQa8LPVssa8NeZ-351" target="uQ56GGnQa8LPVssa8NeZ-4">
          <mxGeometry width="50" height="50" relative="1" as="geometry">
            <mxPoint x="720" y="190" as="sourcePoint" />
            <mxPoint x="770" y="140" as="targetPoint" />
          </mxGeometry>
        </mxCell>
        <mxCell id="uQ56GGnQa8LPVssa8NeZ-361" value="글 수정" style="ellipse;whiteSpace=wrap;html=1;fontSize=18;fontColor=#0000CC;fontStyle=1" vertex="1" parent="1">
          <mxGeometry x="520" y="503.5" width="120" height="51" as="geometry" />
        </mxCell>
        <mxCell id="uQ56GGnQa8LPVssa8NeZ-362" value="글 등록" style="ellipse;whiteSpace=wrap;html=1;fontSize=18;fontColor=#0000CC;fontStyle=1" vertex="1" parent="1">
          <mxGeometry x="650" y="503.5" width="120" height="51" as="geometry" />
        </mxCell>
        <mxCell id="uQ56GGnQa8LPVssa8NeZ-363" value="글 삭제" style="ellipse;whiteSpace=wrap;html=1;fontSize=18;fontColor=#0000CC;fontStyle=1" vertex="1" parent="1">
          <mxGeometry x="780" y="503.5" width="120" height="51" as="geometry" />
        </mxCell>
        <mxCell id="uQ56GGnQa8LPVssa8NeZ-364" value="&lt;font style=&quot;font-size: 22px;&quot; color=&quot;#0000cc&quot;&gt;글 관리&lt;/font&gt;" style="ellipse;whiteSpace=wrap;html=1;fillColor=#FF9933;" vertex="1" parent="1">
          <mxGeometry x="650" y="430" width="120" height="43.5" as="geometry" />
        </mxCell>
        <mxCell id="uQ56GGnQa8LPVssa8NeZ-385" value="&lt;font style=&quot;font-size: 18px;&quot;&gt;로그인&lt;/font&gt;" style="ellipse;whiteSpace=wrap;html=1;fontColor=#000000;fontStyle=1;fontSize=18;" vertex="1" parent="1">
          <mxGeometry x="810" y="210" width="120" height="45" as="geometry" />
        </mxCell>
        <mxCell id="uQ56GGnQa8LPVssa8NeZ-386" value="&lt;font style=&quot;font-size: 18px;&quot;&gt;회원가입&lt;/font&gt;" style="ellipse;whiteSpace=wrap;html=1;fontColor=#000000;fontStyle=1;fontSize=18;" vertex="1" parent="1">
          <mxGeometry x="811" y="130" width="120" height="55" as="geometry" />
        </mxCell>
        <mxCell id="uQ56GGnQa8LPVssa8NeZ-387" value="&lt;font style=&quot;font-size: 18px;&quot;&gt;탈퇴&lt;/font&gt;" style="ellipse;whiteSpace=wrap;html=1;" vertex="1" parent="1">
          <mxGeometry x="960" y="175" width="100" height="45" as="geometry" />
        </mxCell>
        <mxCell id="uQ56GGnQa8LPVssa8NeZ-388" value="&lt;font style=&quot;font-size: 18px;&quot;&gt;정보수정&lt;/font&gt;" style="ellipse;whiteSpace=wrap;html=1;" vertex="1" parent="1">
          <mxGeometry x="955" y="230" width="110" height="50" as="geometry" />
        </mxCell>
        <mxCell id="uQ56GGnQa8LPVssa8NeZ-393" value="회원" style="ellipse;whiteSpace=wrap;html=1;fontSize=20;fontColor=#FF0000;fontStyle=1" vertex="1" parent="1">
          <mxGeometry x="809" y="275" width="121" height="60" as="geometry" />
        </mxCell>
        <mxCell id="uQ56GGnQa8LPVssa8NeZ-394" value="&lt;font style=&quot;font-size: 18px;&quot;&gt;&lt;b&gt;회원&lt;/b&gt;&lt;/font&gt;&lt;div&gt;&lt;span style=&quot;font-size: 18px;&quot;&gt;&lt;b&gt;&lt;br&gt;&lt;/b&gt;&lt;/span&gt;&lt;div&gt;&lt;font style=&quot;font-size: 18px;&quot;&gt;&lt;b&gt;&lt;br&gt;&lt;/b&gt;&lt;/font&gt;&lt;/div&gt;&lt;/div&gt;" style="shape=umlActor;verticalLabelPosition=bottom;verticalAlign=top;html=1;outlineConnect=0;strokeWidth=2;fillColor=#0000FF;" vertex="1" parent="1">
          <mxGeometry x="1000" y="290" width="40" height="70" as="geometry" />
        </mxCell>
        <mxCell id="uQ56GGnQa8LPVssa8NeZ-395" value="&lt;div&gt;&lt;font style=&quot;font-size: 18px;&quot;&gt;&lt;b&gt;비회원&lt;/b&gt;&lt;/font&gt;&lt;/div&gt;" style="shape=umlActor;verticalLabelPosition=bottom;verticalAlign=top;html=1;outlineConnect=0;strokeWidth=2;strokeColor=#1A1A1A;fillColor=#999999;" vertex="1" parent="1">
          <mxGeometry x="995" y="70" width="45" height="60" as="geometry" />
        </mxCell>
        <mxCell id="uQ56GGnQa8LPVssa8NeZ-396" value="" style="endArrow=classic;html=1;rounded=0;exitX=0.5;exitY=0;exitDx=0;exitDy=0;entryX=0;entryY=0.5;entryDx=0;entryDy=0;" edge="1" parent="1" source="uQ56GGnQa8LPVssa8NeZ-16" target="uQ56GGnQa8LPVssa8NeZ-351">
          <mxGeometry width="50" height="50" relative="1" as="geometry">
            <mxPoint x="290" y="440" as="sourcePoint" />
            <mxPoint x="340" y="390" as="targetPoint" />
          </mxGeometry>
        </mxCell>
        <mxCell id="uQ56GGnQa8LPVssa8NeZ-398" value="" style="endArrow=classic;html=1;rounded=0;exitX=0.5;exitY=0;exitDx=0;exitDy=0;" edge="1" parent="1" source="uQ56GGnQa8LPVssa8NeZ-27">
          <mxGeometry width="50" height="50" relative="1" as="geometry">
            <mxPoint x="265" y="620" as="sourcePoint" />
            <mxPoint x="315" y="570" as="targetPoint" />
          </mxGeometry>
        </mxCell>
        <mxCell id="uQ56GGnQa8LPVssa8NeZ-399" value="" style="endArrow=classic;html=1;rounded=0;exitX=0.5;exitY=0;exitDx=0;exitDy=0;entryX=0.5;entryY=1;entryDx=0;entryDy=0;" edge="1" parent="1" source="uQ56GGnQa8LPVssa8NeZ-29" target="uQ56GGnQa8LPVssa8NeZ-27">
          <mxGeometry width="50" height="50" relative="1" as="geometry">
            <mxPoint x="275" y="740" as="sourcePoint" />
            <mxPoint x="325" y="690" as="targetPoint" />
          </mxGeometry>
        </mxCell>
        <mxCell id="uQ56GGnQa8LPVssa8NeZ-400" value="" style="endArrow=classic;html=1;rounded=0;entryX=0.5;entryY=1;entryDx=0;entryDy=0;exitX=0.5;exitY=0;exitDx=0;exitDy=0;" edge="1" parent="1" source="uQ56GGnQa8LPVssa8NeZ-33" target="uQ56GGnQa8LPVssa8NeZ-27">
          <mxGeometry width="50" height="50" relative="1" as="geometry">
            <mxPoint x="285" y="750" as="sourcePoint" />
            <mxPoint x="335" y="700" as="targetPoint" />
          </mxGeometry>
        </mxCell>
        <mxCell id="uQ56GGnQa8LPVssa8NeZ-401" value="" style="endArrow=classic;html=1;rounded=0;exitX=0.5;exitY=0;exitDx=0;exitDy=0;entryX=0.465;entryY=1.024;entryDx=0;entryDy=0;entryPerimeter=0;" edge="1" parent="1" source="uQ56GGnQa8LPVssa8NeZ-28" target="uQ56GGnQa8LPVssa8NeZ-27">
          <mxGeometry width="50" height="50" relative="1" as="geometry">
            <mxPoint x="234" y="610" as="sourcePoint" />
            <mxPoint x="315" y="570" as="targetPoint" />
          </mxGeometry>
        </mxCell>
        <mxCell id="uQ56GGnQa8LPVssa8NeZ-27" value="&lt;span style=&quot;font-size: 16px;&quot;&gt;&lt;b&gt;&lt;font color=&quot;#ff0000&quot;&gt;의료기관&lt;/font&gt;&lt;/b&gt;&lt;/span&gt;" style="ellipse;whiteSpace=wrap;html=1;strokeWidth=3;" vertex="1" parent="1">
          <mxGeometry x="285" y="520" width="180" height="70" as="geometry" />
        </mxCell>
        <mxCell id="uQ56GGnQa8LPVssa8NeZ-402" value="" style="endArrow=classic;html=1;rounded=0;exitX=0.5;exitY=0;exitDx=0;exitDy=0;entryX=0;entryY=0.5;entryDx=0;entryDy=0;" edge="1" parent="1" source="uQ56GGnQa8LPVssa8NeZ-34" target="uQ56GGnQa8LPVssa8NeZ-351">
          <mxGeometry width="50" height="50" relative="1" as="geometry">
            <mxPoint x="190" y="510" as="sourcePoint" />
            <mxPoint x="290" y="330" as="targetPoint" />
          </mxGeometry>
        </mxCell>
        <mxCell id="uQ56GGnQa8LPVssa8NeZ-403" value="" style="endArrow=classic;html=1;rounded=0;exitX=0.5;exitY=0;exitDx=0;exitDy=0;entryX=0;entryY=0.5;entryDx=0;entryDy=0;" edge="1" parent="1" source="uQ56GGnQa8LPVssa8NeZ-27" target="uQ56GGnQa8LPVssa8NeZ-351">
          <mxGeometry width="50" height="50" relative="1" as="geometry">
            <mxPoint x="345" y="450" as="sourcePoint" />
            <mxPoint x="390" y="315" as="targetPoint" />
          </mxGeometry>
        </mxCell>
        <mxCell id="uQ56GGnQa8LPVssa8NeZ-404" value="&lt;font color=&quot;#0000ff&quot; style=&quot;font-size: 18px;&quot;&gt;&lt;b&gt;글 조회&lt;/b&gt;&lt;/font&gt;" style="ellipse;whiteSpace=wrap;html=1;" vertex="1" parent="1">
          <mxGeometry x="1110" y="205" width="120" height="50" as="geometry" />
        </mxCell>
        <mxCell id="uQ56GGnQa8LPVssa8NeZ-410" value="" style="endArrow=classic;html=1;rounded=0;exitX=0;exitY=0.5;exitDx=0;exitDy=0;entryX=1;entryY=0.5;entryDx=0;entryDy=0;" edge="1" parent="1" source="uQ56GGnQa8LPVssa8NeZ-37" target="uQ56GGnQa8LPVssa8NeZ-35">
          <mxGeometry width="50" height="50" relative="1" as="geometry">
            <mxPoint x="850" y="580" as="sourcePoint" />
            <mxPoint x="900" y="530" as="targetPoint" />
          </mxGeometry>
        </mxCell>
        <mxCell id="uQ56GGnQa8LPVssa8NeZ-412" value="" style="endArrow=classic;html=1;rounded=0;entryX=1;entryY=1;entryDx=0;entryDy=0;entryPerimeter=0;exitX=0.5;exitY=0;exitDx=0;exitDy=0;" edge="1" parent="1" source="uQ56GGnQa8LPVssa8NeZ-364" target="uQ56GGnQa8LPVssa8NeZ-4">
          <mxGeometry width="50" height="50" relative="1" as="geometry">
            <mxPoint x="710" y="420" as="sourcePoint" />
            <mxPoint x="788.62" y="380" as="targetPoint" />
          </mxGeometry>
        </mxCell>
        <mxCell id="uQ56GGnQa8LPVssa8NeZ-413" value="" style="endArrow=classic;html=1;rounded=0;entryX=0.5;entryY=1;entryDx=0;entryDy=0;exitX=0.5;exitY=0;exitDx=0;exitDy=0;" edge="1" parent="1" source="uQ56GGnQa8LPVssa8NeZ-363" target="uQ56GGnQa8LPVssa8NeZ-364">
          <mxGeometry width="50" height="50" relative="1" as="geometry">
            <mxPoint x="980" y="563.5" as="sourcePoint" />
            <mxPoint x="1110" y="593.5" as="targetPoint" />
          </mxGeometry>
        </mxCell>
        <mxCell id="uQ56GGnQa8LPVssa8NeZ-414" value="" style="endArrow=classic;html=1;rounded=0;exitX=0.5;exitY=0;exitDx=0;exitDy=0;entryX=0.5;entryY=1;entryDx=0;entryDy=0;" edge="1" parent="1" source="uQ56GGnQa8LPVssa8NeZ-362" target="uQ56GGnQa8LPVssa8NeZ-364">
          <mxGeometry width="50" height="50" relative="1" as="geometry">
            <mxPoint x="970" y="490" as="sourcePoint" />
            <mxPoint x="970" y="520" as="targetPoint" />
          </mxGeometry>
        </mxCell>
        <mxCell id="uQ56GGnQa8LPVssa8NeZ-415" value="" style="endArrow=classic;html=1;rounded=0;entryX=0.5;entryY=1;entryDx=0;entryDy=0;exitX=0.5;exitY=0;exitDx=0;exitDy=0;" edge="1" parent="1" source="uQ56GGnQa8LPVssa8NeZ-361" target="uQ56GGnQa8LPVssa8NeZ-364">
          <mxGeometry width="50" height="50" relative="1" as="geometry">
            <mxPoint x="980" y="563.5" as="sourcePoint" />
            <mxPoint x="850" y="593.5" as="targetPoint" />
          </mxGeometry>
        </mxCell>
        <mxCell id="uQ56GGnQa8LPVssa8NeZ-416" value="" style="endArrow=classic;html=1;rounded=0;exitX=0.5;exitY=0;exitDx=0;exitDy=0;entryX=0.5;entryY=1;entryDx=0;entryDy=0;" edge="1" parent="1" source="uQ56GGnQa8LPVssa8NeZ-35" target="uQ56GGnQa8LPVssa8NeZ-361">
          <mxGeometry width="50" height="50" relative="1" as="geometry">
            <mxPoint x="870" y="623.5" as="sourcePoint" />
            <mxPoint x="920" y="573.5" as="targetPoint" />
          </mxGeometry>
        </mxCell>
        <mxCell id="uQ56GGnQa8LPVssa8NeZ-417" value="" style="endArrow=classic;html=1;rounded=0;" edge="1" parent="1" target="uQ56GGnQa8LPVssa8NeZ-362">
          <mxGeometry width="50" height="50" relative="1" as="geometry">
            <mxPoint x="710" y="593.5" as="sourcePoint" />
            <mxPoint x="930" y="583.5" as="targetPoint" />
          </mxGeometry>
        </mxCell>
        <mxCell id="uQ56GGnQa8LPVssa8NeZ-418" value="" style="endArrow=classic;html=1;rounded=0;exitX=0.5;exitY=0;exitDx=0;exitDy=0;entryX=0.567;entryY=1.052;entryDx=0;entryDy=0;entryPerimeter=0;" edge="1" parent="1" source="uQ56GGnQa8LPVssa8NeZ-35" target="uQ56GGnQa8LPVssa8NeZ-363">
          <mxGeometry width="50" height="50" relative="1" as="geometry">
            <mxPoint x="890" y="643.5" as="sourcePoint" />
            <mxPoint x="940" y="593.5" as="targetPoint" />
          </mxGeometry>
        </mxCell>
        <mxCell id="uQ56GGnQa8LPVssa8NeZ-420" value="글 수정" style="ellipse;whiteSpace=wrap;html=1;fontSize=18;fontColor=#0000CC;fontStyle=1" vertex="1" parent="1">
          <mxGeometry x="830" y="422.5" width="120" height="51" as="geometry" />
        </mxCell>
        <mxCell id="uQ56GGnQa8LPVssa8NeZ-421" value="글 등록" style="ellipse;whiteSpace=wrap;html=1;fontSize=18;fontColor=#0000CC;fontStyle=1" vertex="1" parent="1">
          <mxGeometry x="960" y="422.5" width="120" height="51" as="geometry" />
        </mxCell>
        <mxCell id="uQ56GGnQa8LPVssa8NeZ-422" value="글 삭제" style="ellipse;whiteSpace=wrap;html=1;fontSize=18;fontColor=#0000CC;fontStyle=1" vertex="1" parent="1">
          <mxGeometry x="1090" y="422.5" width="120" height="51" as="geometry" />
        </mxCell>
        <mxCell id="uQ56GGnQa8LPVssa8NeZ-423" value="" style="endArrow=classic;html=1;rounded=0;entryX=0.5;entryY=0;entryDx=0;entryDy=0;" edge="1" parent="1" target="uQ56GGnQa8LPVssa8NeZ-420">
          <mxGeometry width="50" height="50" relative="1" as="geometry">
            <mxPoint x="990" y="380" as="sourcePoint" />
            <mxPoint x="1070" y="335" as="targetPoint" />
          </mxGeometry>
        </mxCell>
        <mxCell id="uQ56GGnQa8LPVssa8NeZ-425" value="" style="endArrow=classic;html=1;rounded=0;" edge="1" parent="1" target="uQ56GGnQa8LPVssa8NeZ-421">
          <mxGeometry width="50" height="50" relative="1" as="geometry">
            <mxPoint x="1020" y="390" as="sourcePoint" />
            <mxPoint x="1140" y="340" as="targetPoint" />
          </mxGeometry>
        </mxCell>
        <mxCell id="uQ56GGnQa8LPVssa8NeZ-427" value="" style="endArrow=classic;html=1;rounded=0;" edge="1" parent="1">
          <mxGeometry width="50" height="50" relative="1" as="geometry">
            <mxPoint x="1050" y="380" as="sourcePoint" />
            <mxPoint x="1150" y="420" as="targetPoint" />
          </mxGeometry>
        </mxCell>
        <mxCell id="uQ56GGnQa8LPVssa8NeZ-428" value="" style="endArrow=classic;html=1;rounded=0;exitX=0.5;exitY=1;exitDx=0;exitDy=0;entryX=0.5;entryY=0;entryDx=0;entryDy=0;" edge="1" parent="1" source="uQ56GGnQa8LPVssa8NeZ-421" target="uQ56GGnQa8LPVssa8NeZ-37">
          <mxGeometry width="50" height="50" relative="1" as="geometry">
            <mxPoint x="1060" y="520" as="sourcePoint" />
            <mxPoint x="1110" y="470" as="targetPoint" />
          </mxGeometry>
        </mxCell>
        <mxCell id="uQ56GGnQa8LPVssa8NeZ-429" value="" style="endArrow=classic;html=1;rounded=0;exitX=0.411;exitY=1.121;exitDx=0;exitDy=0;exitPerimeter=0;entryX=0.567;entryY=0.039;entryDx=0;entryDy=0;entryPerimeter=0;" edge="1" parent="1">
          <mxGeometry width="50" height="50" relative="1" as="geometry">
            <mxPoint x="1139.3200000000002" y="473.50100000000003" as="sourcePoint" />
            <mxPoint x="1018.04" y="516.17" as="targetPoint" />
          </mxGeometry>
        </mxCell>
        <mxCell id="uQ56GGnQa8LPVssa8NeZ-430" value="" style="endArrow=classic;html=1;rounded=0;exitX=0.5;exitY=1;exitDx=0;exitDy=0;" edge="1" parent="1" source="uQ56GGnQa8LPVssa8NeZ-420">
          <mxGeometry width="50" height="50" relative="1" as="geometry">
            <mxPoint x="935" y="520" as="sourcePoint" />
            <mxPoint x="1010" y="520" as="targetPoint" />
          </mxGeometry>
        </mxCell>
        <mxCell id="uQ56GGnQa8LPVssa8NeZ-431" value="" style="endArrow=classic;html=1;rounded=0;entryX=0.211;entryY=0.027;entryDx=0;entryDy=0;entryPerimeter=0;" edge="1" parent="1" target="uQ56GGnQa8LPVssa8NeZ-404">
          <mxGeometry width="50" height="50" relative="1" as="geometry">
            <mxPoint x="1050" y="130" as="sourcePoint" />
            <mxPoint x="1160" y="145" as="targetPoint" />
          </mxGeometry>
        </mxCell>
        <mxCell id="uQ56GGnQa8LPVssa8NeZ-432" value="" style="endArrow=classic;html=1;rounded=0;exitX=0.5;exitY=1;exitDx=0;exitDy=0;entryX=0.5;entryY=0;entryDx=0;entryDy=0;" edge="1" parent="1" source="uQ56GGnQa8LPVssa8NeZ-385" target="uQ56GGnQa8LPVssa8NeZ-393">
          <mxGeometry width="50" height="50" relative="1" as="geometry">
            <mxPoint x="750" y="310" as="sourcePoint" />
            <mxPoint x="800" y="260" as="targetPoint" />
          </mxGeometry>
        </mxCell>
        <mxCell id="uQ56GGnQa8LPVssa8NeZ-433" value="" style="endArrow=classic;html=1;rounded=0;exitX=1;exitY=0.5;exitDx=0;exitDy=0;entryX=0;entryY=0.5;entryDx=0;entryDy=0;" edge="1" parent="1" source="uQ56GGnQa8LPVssa8NeZ-385" target="uQ56GGnQa8LPVssa8NeZ-388">
          <mxGeometry width="50" height="50" relative="1" as="geometry">
            <mxPoint x="920" y="270" as="sourcePoint" />
            <mxPoint x="970" y="220" as="targetPoint" />
          </mxGeometry>
        </mxCell>
        <mxCell id="uQ56GGnQa8LPVssa8NeZ-434" value="" style="endArrow=classic;html=1;rounded=0;exitX=1;exitY=0.5;exitDx=0;exitDy=0;entryX=0.033;entryY=0.726;entryDx=0;entryDy=0;entryPerimeter=0;" edge="1" parent="1" source="uQ56GGnQa8LPVssa8NeZ-385" target="uQ56GGnQa8LPVssa8NeZ-387">
          <mxGeometry width="50" height="50" relative="1" as="geometry">
            <mxPoint x="905" y="210" as="sourcePoint" />
            <mxPoint x="955" y="160" as="targetPoint" />
          </mxGeometry>
        </mxCell>
        <mxCell id="uQ56GGnQa8LPVssa8NeZ-435" value="" style="endArrow=classic;html=1;rounded=0;exitX=0.5;exitY=1;exitDx=0;exitDy=0;" edge="1" parent="1" source="uQ56GGnQa8LPVssa8NeZ-386" target="uQ56GGnQa8LPVssa8NeZ-385">
          <mxGeometry width="50" height="50" relative="1" as="geometry">
            <mxPoint x="740" y="320" as="sourcePoint" />
            <mxPoint x="790" y="270" as="targetPoint" />
          </mxGeometry>
        </mxCell>
        <mxCell id="uQ56GGnQa8LPVssa8NeZ-436" value="" style="endArrow=classic;html=1;rounded=0;entryX=0.992;entryY=0.37;entryDx=0;entryDy=0;entryPerimeter=0;" edge="1" parent="1" source="uQ56GGnQa8LPVssa8NeZ-395" target="uQ56GGnQa8LPVssa8NeZ-386">
          <mxGeometry width="50" height="50" relative="1" as="geometry">
            <mxPoint x="910" y="120" as="sourcePoint" />
            <mxPoint x="960" y="70" as="targetPoint" />
          </mxGeometry>
        </mxCell>
        <mxCell id="uQ56GGnQa8LPVssa8NeZ-437" value="" style="endArrow=classic;html=1;rounded=0;entryX=0.256;entryY=0.933;entryDx=0;entryDy=0;entryPerimeter=0;" edge="1" parent="1" target="uQ56GGnQa8LPVssa8NeZ-404">
          <mxGeometry width="50" height="50" relative="1" as="geometry">
            <mxPoint x="1050" y="330" as="sourcePoint" />
            <mxPoint x="1195" y="280" as="targetPoint" />
          </mxGeometry>
        </mxCell>
      </root>
    </mxGraphModel>
  </diagram>
</mxfile>
